<?xml version="1.0" encoding="utf-8"?><svg viewBox="0 0 122 38" xmlns="http://www.w3.org/2000/svg" xmlns:xlink="http://www.w3.org/1999/xlink"><style>:root>svg{display:none}:root>svg:target{display:block}</style><svg fill="none" viewBox="0 0 122 38" id="logo" xmlns="http://www.w3.org/2000/svg"><path d="M4.838 33.167h16.846V37H.126V1.453h4.712v31.714zm47.925-12.793c0 3.483-.586 6.527-1.758 9.13-1.172 2.589-2.832 4.566-4.98 5.933-2.149 1.368-4.655 2.051-7.52 2.051-2.8 0-5.282-.683-7.446-2.05-2.165-1.384-3.85-3.345-5.054-5.884-1.188-2.556-1.799-5.51-1.831-8.863v-2.563c0-3.418.594-6.437 1.782-9.058 1.188-2.62 2.865-4.622 5.03-6.006 2.18-1.4 4.67-2.1 7.47-2.1 2.848 0 5.355.693 7.52 2.076 2.18 1.367 3.857 3.361 5.029 5.981 1.172 2.605 1.758 5.64 1.758 9.107v2.246zM48.1 18.079c0-4.215-.847-7.446-2.54-9.692-1.692-2.263-4.06-3.394-7.104-3.394-2.962 0-5.298 1.131-7.007 3.394-1.693 2.246-2.563 5.37-2.612 9.375v2.612c0 4.085.854 7.3 2.563 9.644 1.726 2.327 4.094 3.49 7.105 3.49 3.027 0 5.371-1.098 7.031-3.295 1.66-2.214 2.515-5.38 2.564-9.497v-2.637zm37.94 14.258c-1.205 1.725-2.89 3.02-5.055 3.882-2.148.846-4.655 1.27-7.52 1.27-2.896 0-5.468-.676-7.714-2.027-2.246-1.367-3.988-3.304-5.225-5.81-1.22-2.507-1.847-5.412-1.88-8.716v-3.101c0-5.355 1.246-9.505 3.736-12.451 2.506-2.946 6.022-4.42 10.547-4.42 3.71 0 6.697.953 8.96 2.857 2.262 1.888 3.645 4.574 4.15 8.057h-4.687c-.88-4.704-3.679-7.056-8.399-7.056-3.141 0-5.526 1.107-7.153 3.32-1.611 2.198-2.425 5.388-2.442 9.57v2.906c0 3.988.912 7.162 2.735 9.522 1.823 2.343 4.288 3.515 7.397 3.515 1.758 0 3.296-.195 4.615-.586 1.318-.39 2.408-1.05 3.271-1.977v-7.984h-8.228V19.3H86.04v13.037zm35.18-11.963c0 3.483-.586 6.527-1.758 9.13-1.172 2.589-2.832 4.566-4.981 5.933-2.148 1.368-4.655 2.051-7.519 2.051-2.8 0-5.282-.683-7.446-2.05-2.165-1.384-3.85-3.345-5.054-5.884-1.188-2.556-1.799-5.51-1.831-8.863v-2.563c0-3.418.594-6.437 1.782-9.058 1.188-2.62 2.865-4.622 5.03-6.006 2.18-1.4 4.671-2.1 7.47-2.1 2.848 0 5.355.693 7.52 2.076 2.181 1.367 3.857 3.361 5.029 5.981 1.172 2.605 1.758 5.64 1.758 9.107v2.246zm-4.663-2.295c0-4.215-.847-7.446-2.539-9.692-1.693-2.263-4.061-3.394-7.105-3.394-2.962 0-5.298 1.131-7.007 3.394-1.693 2.246-2.563 5.37-2.612 9.375v2.612c0 4.085.854 7.3 2.563 9.644 1.726 2.327 4.094 3.49 7.105 3.49 3.027 0 5.371-1.098 7.031-3.295 1.66-2.214 2.515-5.38 2.564-9.497v-2.637z" fill="#fff"/></svg></svg>