<?xml version="1.0" encoding="utf-8"?><svg viewBox="0 0 122 65" xmlns="http://www.w3.org/2000/svg" xmlns:xlink="http://www.w3.org/1999/xlink"><style>:root>svg{display:none}:root>svg:target{display:block}</style><svg fill="none" viewBox="0 0 65 65" id="gear" xmlns="http://www.w3.org/2000/svg"><path d="M61.661 26.02l-5.51-1.353c-.26-.714-.56-1.429-.897-2.138l2.87-4.783a1.758 1.758 0 00-.265-2.147L50.401 8.14a1.758 1.758 0 00-2.147-.265l-4.783 2.87a24.654 24.654 0 00-2.138-.898l-1.352-5.51A1.758 1.758 0 0038.273 3H27.727c-.81 0-1.515.553-1.707 1.339l-1.353 5.51c-.714.26-1.428.56-2.138.897l-4.783-2.87a1.758 1.758 0 00-2.147.265L8.14 15.598c-.57.57-.68 1.456-.264 2.148l2.87 4.783c-.338.71-.638 1.424-.898 2.138l-5.51 1.352A1.758 1.758 0 003 27.727v10.546c0 .81.553 1.515 1.339 1.708l5.51 1.352c.26.714.56 1.428.897 2.138l-2.87 4.783a1.758 1.758 0 00.265 2.148l7.458 7.457c.57.57 1.455.68 2.147.265l4.783-2.87c.71.337 1.424.637 2.138.898l1.352 5.51A1.764 1.764 0 0027.727 63h10.546c.805 0 1.514-.554 1.707-1.339l1.353-5.51a24.66 24.66 0 002.138-.897l4.783 2.87a1.758 1.758 0 002.147-.265l7.458-7.458c.57-.57.68-1.455.264-2.147l-2.87-4.783c.338-.71.638-1.424.898-2.138l5.51-1.352A1.758 1.758 0 0063 38.273V27.727c0-.81-.553-1.515-1.339-1.708zm-34.91 8.443l5.274 3.515c.59.394 1.36.394 1.95 0l5.274-3.515c.489-.326.782-.875.782-1.463V22.9c3.27 2.268 5.274 6 5.274 10.1 0 6.785-5.52 12.305-12.305 12.305S20.695 39.785 20.695 33c0-4.1 2.004-7.832 5.274-10.1V33c0 .588.293 1.137.783 1.463zM33 48.82a15.81 15.81 0 003.516-.394v11.058h-7.032V48.426A15.81 15.81 0 0033 48.82zm26.484-11.925l-5.105 1.253a1.758 1.758 0 00-1.258 1.179 21.047 21.047 0 01-1.428 3.407 1.757 1.757 0 00.05 1.72l2.66 4.432-5.517 5.517-4.432-2.66a1.758 1.758 0 00-1.72-.05 21.49 21.49 0 01-2.703 1.19v-5.714c5.205-2.593 8.79-7.97 8.79-14.17a15.72 15.72 0 00-2.773-8.938 15.839 15.839 0 00-7.113-5.726 1.758 1.758 0 00-2.42 1.628V32.06L33 34.403l-3.515-2.344V19.964a1.758 1.758 0 00-2.42-1.63 15.838 15.838 0 00-7.112 5.727A15.718 15.718 0 0017.18 33c0 6.199 3.584 11.576 8.789 14.169v5.714c-.9-.323-1.807-.721-2.703-1.19a1.758 1.758 0 00-1.72.05l-4.432 2.66-5.517-5.517 2.66-4.433a1.758 1.758 0 00.05-1.719 21.039 21.039 0 01-1.428-3.407 1.758 1.758 0 00-1.258-1.179l-5.105-1.253v-7.79l5.105-1.253a1.758 1.758 0 001.258-1.179c.356-1.13.837-2.277 1.428-3.407a1.757 1.757 0 00-.05-1.72l-2.66-4.432 5.517-5.517 4.432 2.66a1.758 1.758 0 001.72.05 21.047 21.047 0 013.407-1.428 1.758 1.758 0 001.179-1.258l1.253-5.105h7.79l1.253 5.105a1.758 1.758 0 001.179 1.258c1.13.356 2.277.837 3.407 1.428a1.758 1.758 0 001.72-.05l4.432-2.66 5.517 5.517-2.66 4.433a1.758 1.758 0 00-.05 1.719 21.039 21.039 0 011.428 3.407 1.758 1.758 0 001.258 1.179l5.105 1.253v7.79z" fill="#26CF41"/></svg><svg fill="none" viewBox="0 0 60 60" id="guarantee" xmlns="http://www.w3.org/2000/svg"><g clip-path="url(#bclip0)" fill="#26CF41"><path d="M50.195 37.416a24.02 24.02 0 003.968-13.252C54.163 10.84 43.323 0 30 0 16.675 0 5.835 10.84 5.835 24.164c0 4.89 1.462 9.445 3.968 13.252L.352 51.201l10.815-2.017L13.184 60l8.914-13a24.06 24.06 0 007.901 1.328c2.766 0 5.425-.468 7.902-1.328l8.914 13 2.016-10.816 10.816 2.017-9.452-13.785zm-35.1 13.543l-1.1-5.9-5.899 1.101 3.98-5.806a24.325 24.325 0 006.717 5.213l-3.698 5.392zM9.371 24.164C9.371 12.79 18.625 3.536 30 3.536c11.375 0 20.628 9.254 20.628 20.628S41.374 44.792 30 44.792c-11.374 0-20.628-9.254-20.628-20.628zm36.632 20.895l-1.1 5.9-3.697-5.392a24.325 24.325 0 006.716-5.213l3.98 5.806-5.899-1.1z"/><path d="M25.692 29.47l-5.75-5.748-2.5 2.5 8.25 8.25 16.865-16.865-2.5-2.5L25.69 29.47z"/></g><defs><clipPath id="bclip0"><path fill="#fff" d="M0 0h60v60H0z"/></clipPath></defs></svg><svg fill="none" viewBox="0 0 65 65" id="health-report" xmlns="http://www.w3.org/2000/svg"><path d="M34.531 19.297H46.72v2.031H34.53v-2.031zM34.531 23.36H46.72v2.03H34.53v-2.03zM24.375 34.531a2.031 2.031 0 00-2.031-2.031h-2.032a2.031 2.031 0 00-2.03 2.031v2.032a2.031 2.031 0 002.03 2.03h2.032a2.032 2.032 0 002.031-2.03V34.53zm-4.063 2.032V34.53h2.032v2.032h-2.032zM24.375 42.656a2.031 2.031 0 00-2.031-2.031h-2.032a2.031 2.031 0 00-2.03 2.031v2.032a2.031 2.031 0 002.03 2.03h2.032a2.032 2.032 0 002.031-2.03v-2.032zm-4.063 2.032v-2.032h2.032v2.032h-2.032zM22.344 48.75h-2.032a2.031 2.031 0 00-2.03 2.031v2.032a2.031 2.031 0 002.03 2.03h2.032a2.032 2.032 0 002.031-2.03V50.78a2.031 2.031 0 00-2.031-2.031zm-2.032 4.063V50.78h2.032v2.032h-2.032zM26.406 34.531h14.219v2.032H26.406V34.53zM26.406 42.656h14.219v2.032H26.406v-2.032zM26.406 50.781h12.188v2.032H26.406V50.78zM16.25 20.313v4.062h2.031v-1.016h1.117c.131.636.384 1.24.744 1.78l-.795.796-.718-.72-1.437 1.437 2.873 2.873L21.5 28.09l-.718-.718.795-.795c.54.36 1.145.613 1.781.744v1.117h-1.015v2.032h4.062v-2.032h-1.015V27.32a5.038 5.038 0 001.78-.743l.795.795-.718.718 1.436 1.436 2.872-2.873-1.436-1.436-.718.719-.795-.795c.36-.54.613-1.145.745-1.782h1.117v1.016H32.5v-4.063h-2.031v1.016h-1.117a5.048 5.048 0 00-.744-1.78l.795-.795.718.719 1.437-1.437-2.873-2.873-1.436 1.436.718.718-.795.796a5.039 5.039 0 00-1.781-.745V16.25h1.015v-2.031h-4.062v2.031h1.015v1.117c-.635.131-1.24.383-1.78.744l-.795-.796.718-.718-1.436-1.436-2.872 2.874 1.436 1.436.718-.72.795.796a5.047 5.047 0 00-.745 1.781h-1.117v-1.015H16.25zm8.125-1.016a3.047 3.047 0 110 6.094 3.047 3.047 0 010-6.094z" fill="#26CF41"/><path d="M52.813 4.063H41.457a3.057 3.057 0 00-2.864-2.032H26.406a3.056 3.056 0 00-3.047 3.047v3.047h-9.14a2.037 2.037 0 00-2.031 2.031v19.297h2.03V10.156h9.141a2.037 2.037 0 002.032 2.031h14.218a2.037 2.037 0 002.032-2.03h7.109V48.75h-6.094a2.037 2.037 0 00-2.031 2.031v6.094H14.219v-25.39h-2.031v25.39a2.037 2.037 0 002.03 2.031h27.423c.269-.002.527-.107.72-.294l8.126-8.125c.187-.194.292-.452.294-.721v-39.61a2.037 2.037 0 00-2.031-2.031h-7.11V6.094h11.172v54.843H10.157V6.094h11.172V4.062H10.156a2.037 2.037 0 00-2.031 2.032v54.843a2.037 2.037 0 002.031 2.032h42.657a2.038 2.038 0 002.03-2.032V6.094a2.038 2.038 0 00-2.03-2.032zm-13.204 6.093H25.391V5.078a1.016 1.016 0 011.015-1.016h12.188a1.016 1.016 0 011.015 1.016v5.078zm3.047 45.287v-4.662h4.662l-4.662 4.662z" fill="#26CF41"/><path d="M42.656 34.531h2.032v2.032h-2.032V34.53zM42.656 42.656h2.032v2.032h-2.032v-2.032z" fill="#26CF41"/></svg><svg fill="none" viewBox="0 0 122 38" id="logo" xmlns="http://www.w3.org/2000/svg"><path d="M4.838 33.167h16.846V37H.126V1.453h4.712v31.714zm47.925-12.793c0 3.483-.586 6.527-1.758 9.13-1.172 2.589-2.832 4.566-4.98 5.933-2.149 1.368-4.655 2.051-7.52 2.051-2.8 0-5.282-.683-7.446-2.05-2.165-1.384-3.85-3.345-5.054-5.884-1.188-2.556-1.799-5.51-1.831-8.863v-2.563c0-3.418.594-6.437 1.782-9.058 1.188-2.62 2.865-4.622 5.03-6.006 2.18-1.4 4.67-2.1 7.47-2.1 2.848 0 5.355.693 7.52 2.076 2.18 1.367 3.857 3.361 5.029 5.981 1.172 2.605 1.758 5.64 1.758 9.107v2.246zM48.1 18.079c0-4.215-.847-7.446-2.54-9.692-1.692-2.263-4.06-3.394-7.104-3.394-2.962 0-5.298 1.131-7.007 3.394-1.693 2.246-2.563 5.37-2.612 9.375v2.612c0 4.085.854 7.3 2.563 9.644 1.726 2.327 4.094 3.49 7.105 3.49 3.027 0 5.371-1.098 7.031-3.295 1.66-2.214 2.515-5.38 2.564-9.497v-2.637zm37.94 14.258c-1.205 1.725-2.89 3.02-5.055 3.882-2.148.846-4.655 1.27-7.52 1.27-2.896 0-5.468-.676-7.714-2.027-2.246-1.367-3.988-3.304-5.225-5.81-1.22-2.507-1.847-5.412-1.88-8.716v-3.101c0-5.355 1.246-9.505 3.736-12.451 2.506-2.946 6.022-4.42 10.547-4.42 3.71 0 6.697.953 8.96 2.857 2.262 1.888 3.645 4.574 4.15 8.057h-4.687c-.88-4.704-3.679-7.056-8.399-7.056-3.141 0-5.526 1.107-7.153 3.32-1.611 2.198-2.425 5.388-2.442 9.57v2.906c0 3.988.912 7.162 2.735 9.522 1.823 2.343 4.288 3.515 7.397 3.515 1.758 0 3.296-.195 4.615-.586 1.318-.39 2.408-1.05 3.271-1.977v-7.984h-8.228V19.3H86.04v13.037zm35.18-11.963c0 3.483-.586 6.527-1.758 9.13-1.172 2.589-2.832 4.566-4.981 5.933-2.148 1.368-4.655 2.051-7.519 2.051-2.8 0-5.282-.683-7.446-2.05-2.165-1.384-3.85-3.345-5.054-5.884-1.188-2.556-1.799-5.51-1.831-8.863v-2.563c0-3.418.594-6.437 1.782-9.058 1.188-2.62 2.865-4.622 5.03-6.006 2.18-1.4 4.671-2.1 7.47-2.1 2.848 0 5.355.693 7.52 2.076 2.181 1.367 3.857 3.361 5.029 5.981 1.172 2.605 1.758 5.64 1.758 9.107v2.246zm-4.663-2.295c0-4.215-.847-7.446-2.539-9.692-1.693-2.263-4.061-3.394-7.105-3.394-2.962 0-5.298 1.131-7.007 3.394-1.693 2.246-2.563 5.37-2.612 9.375v2.612c0 4.085.854 7.3 2.563 9.644 1.726 2.327 4.094 3.49 7.105 3.49 3.027 0 5.371-1.098 7.031-3.295 1.66-2.214 2.515-5.38 2.564-9.497v-2.637z" fill="#fff"/></svg></svg>