<?xml version="1.0" encoding="utf-8"?><svg viewBox="0 0 504 504" xmlns="http://www.w3.org/2000/svg" xmlns:xlink="http://www.w3.org/1999/xlink"><style>:root>svg{display:none}:root>svg:target{display:block}</style><svg fill="none" viewBox="0 0 25 25" id="clock" xmlns="http://www.w3.org/2000/svg"><g clip-path="url(#aclip0)" fill="#000"><path d="M22.37 6.578c-.518.25-.735.874-.485 1.391a10.31 10.31 0 011.032 4.531c0 5.744-4.673 10.417-10.417 10.417S2.083 18.244 2.083 12.5 6.756 2.083 12.5 2.083c2.38 0 4.616.778 6.467 2.248A1.041 1.041 0 1020.263 2.7 12.52 12.52 0 0012.5 0C5.608 0 0 5.608 0 12.5S5.608 25 12.5 25 25 19.392 25 12.5c0-1.91-.417-3.74-1.24-5.438a1.04 1.04 0 00-1.39-.484z"/><path d="M12.5 4.167c-.575 0-1.042.466-1.042 1.041V12.5c0 .575.467 1.041 1.042 1.041h5.208a1.042 1.042 0 000-2.083h-4.166v-6.25c0-.575-.467-1.042-1.042-1.042z"/></g><defs><clipPath id="aclip0"><path fill="#fff" d="M0 0h25v25H0z"/></clipPath></defs></svg><svg viewBox="0 0 25 25" id="faq-arrow" xmlns="http://www.w3.org/2000/svg"><g clip-path="url(#bclip0)"><path d="M25 12.5C25 5.607 19.393 0 12.5 0S0 5.607 0 12.5 5.607 25 12.5 25 25 19.393 25 12.5zm-13.236 3.861l-5.209-5.208a1.039 1.039 0 010-1.473 1.04 1.04 0 011.473 0l4.472 4.472 4.472-4.472a1.04 1.04 0 111.473 1.473l-5.209 5.208a1.04 1.04 0 01-1.473 0z"/></g><defs><clipPath id="bclip0"><path transform="rotate(90 12.5 12.5)" d="M0 0h25v25H0z"/></clipPath></defs></svg><svg fill="none" viewBox="0 0 65 65" id="gear" xmlns="http://www.w3.org/2000/svg"><path d="M61.661 26.02l-5.51-1.353c-.26-.714-.56-1.429-.897-2.138l2.87-4.783a1.758 1.758 0 00-.265-2.147L50.401 8.14a1.758 1.758 0 00-2.147-.265l-4.783 2.87a24.654 24.654 0 00-2.138-.898l-1.352-5.51A1.758 1.758 0 0038.273 3H27.727c-.81 0-1.515.553-1.707 1.339l-1.353 5.51c-.714.26-1.428.56-2.138.897l-4.783-2.87a1.758 1.758 0 00-2.147.265L8.14 15.598c-.57.57-.68 1.456-.264 2.148l2.87 4.783c-.338.71-.638 1.424-.898 2.138l-5.51 1.352A1.758 1.758 0 003 27.727v10.546c0 .81.553 1.515 1.339 1.708l5.51 1.352c.26.714.56 1.428.897 2.138l-2.87 4.783a1.758 1.758 0 00.265 2.148l7.458 7.457c.57.57 1.455.68 2.147.265l4.783-2.87c.71.337 1.424.637 2.138.898l1.352 5.51A1.764 1.764 0 0027.727 63h10.546c.805 0 1.514-.554 1.707-1.339l1.353-5.51a24.66 24.66 0 002.138-.897l4.783 2.87a1.758 1.758 0 002.147-.265l7.458-7.458c.57-.57.68-1.455.264-2.147l-2.87-4.783c.338-.71.638-1.424.898-2.138l5.51-1.352A1.758 1.758 0 0063 38.273V27.727c0-.81-.553-1.515-1.339-1.708zm-34.91 8.443l5.274 3.515c.59.394 1.36.394 1.95 0l5.274-3.515c.489-.326.782-.875.782-1.463V22.9c3.27 2.268 5.274 6 5.274 10.1 0 6.785-5.52 12.305-12.305 12.305S20.695 39.785 20.695 33c0-4.1 2.004-7.832 5.274-10.1V33c0 .588.293 1.137.783 1.463zM33 48.82a15.81 15.81 0 003.516-.394v11.058h-7.032V48.426A15.81 15.81 0 0033 48.82zm26.484-11.925l-5.105 1.253a1.758 1.758 0 00-1.258 1.179 21.047 21.047 0 01-1.428 3.407 1.757 1.757 0 00.05 1.72l2.66 4.432-5.517 5.517-4.432-2.66a1.758 1.758 0 00-1.72-.05 21.49 21.49 0 01-2.703 1.19v-5.714c5.205-2.593 8.79-7.97 8.79-14.17a15.72 15.72 0 00-2.773-8.938 15.839 15.839 0 00-7.113-5.726 1.758 1.758 0 00-2.42 1.628V32.06L33 34.403l-3.515-2.344V19.964a1.758 1.758 0 00-2.42-1.63 15.838 15.838 0 00-7.112 5.727A15.718 15.718 0 0017.18 33c0 6.199 3.584 11.576 8.789 14.169v5.714c-.9-.323-1.807-.721-2.703-1.19a1.758 1.758 0 00-1.72.05l-4.432 2.66-5.517-5.517 2.66-4.433a1.758 1.758 0 00.05-1.719 21.039 21.039 0 01-1.428-3.407 1.758 1.758 0 00-1.258-1.179l-5.105-1.253v-7.79l5.105-1.253a1.758 1.758 0 001.258-1.179c.356-1.13.837-2.277 1.428-3.407a1.757 1.757 0 00-.05-1.72l-2.66-4.432 5.517-5.517 4.432 2.66a1.758 1.758 0 001.72.05 21.047 21.047 0 013.407-1.428 1.758 1.758 0 001.179-1.258l1.253-5.105h7.79l1.253 5.105a1.758 1.758 0 001.179 1.258c1.13.356 2.277.837 3.407 1.428a1.758 1.758 0 001.72-.05l4.432-2.66 5.517 5.517-2.66 4.433a1.758 1.758 0 00-.05 1.719 21.039 21.039 0 011.428 3.407 1.758 1.758 0 001.258 1.179l5.105 1.253v7.79z" fill="#26CF41"/></svg><svg fill="none" viewBox="0 0 60 60" id="guarantee" xmlns="http://www.w3.org/2000/svg"><g clip-path="url(#dclip0)" fill="#26CF41"><path d="M50.195 37.416a24.02 24.02 0 003.968-13.252C54.163 10.84 43.323 0 30 0 16.675 0 5.835 10.84 5.835 24.164c0 4.89 1.462 9.445 3.968 13.252L.352 51.201l10.815-2.017L13.184 60l8.914-13a24.06 24.06 0 007.901 1.328c2.766 0 5.425-.468 7.902-1.328l8.914 13 2.016-10.816 10.816 2.017-9.452-13.785zm-35.1 13.543l-1.1-5.9-5.899 1.101 3.98-5.806a24.325 24.325 0 006.717 5.213l-3.698 5.392zM9.371 24.164C9.371 12.79 18.625 3.536 30 3.536c11.375 0 20.628 9.254 20.628 20.628S41.374 44.792 30 44.792c-11.374 0-20.628-9.254-20.628-20.628zm36.632 20.895l-1.1 5.9-3.697-5.392a24.325 24.325 0 006.716-5.213l3.98 5.806-5.899-1.1z"/><path d="M25.692 29.47l-5.75-5.748-2.5 2.5 8.25 8.25 16.865-16.865-2.5-2.5L25.69 29.47z"/></g><defs><clipPath id="dclip0"><path fill="#fff" d="M0 0h60v60H0z"/></clipPath></defs></svg><svg fill="none" viewBox="0 0 65 65" id="health-report" xmlns="http://www.w3.org/2000/svg"><path d="M34.531 19.297H46.72v2.031H34.53v-2.031zM34.531 23.36H46.72v2.03H34.53v-2.03zM24.375 34.531a2.031 2.031 0 00-2.031-2.031h-2.032a2.031 2.031 0 00-2.03 2.031v2.032a2.031 2.031 0 002.03 2.03h2.032a2.032 2.032 0 002.031-2.03V34.53zm-4.063 2.032V34.53h2.032v2.032h-2.032zM24.375 42.656a2.031 2.031 0 00-2.031-2.031h-2.032a2.031 2.031 0 00-2.03 2.031v2.032a2.031 2.031 0 002.03 2.03h2.032a2.032 2.032 0 002.031-2.03v-2.032zm-4.063 2.032v-2.032h2.032v2.032h-2.032zM22.344 48.75h-2.032a2.031 2.031 0 00-2.03 2.031v2.032a2.031 2.031 0 002.03 2.03h2.032a2.032 2.032 0 002.031-2.03V50.78a2.031 2.031 0 00-2.031-2.031zm-2.032 4.063V50.78h2.032v2.032h-2.032zM26.406 34.531h14.219v2.032H26.406V34.53zM26.406 42.656h14.219v2.032H26.406v-2.032zM26.406 50.781h12.188v2.032H26.406V50.78zM16.25 20.313v4.062h2.031v-1.016h1.117c.131.636.384 1.24.744 1.78l-.795.796-.718-.72-1.437 1.437 2.873 2.873L21.5 28.09l-.718-.718.795-.795c.54.36 1.145.613 1.781.744v1.117h-1.015v2.032h4.062v-2.032h-1.015V27.32a5.038 5.038 0 001.78-.743l.795.795-.718.718 1.436 1.436 2.872-2.873-1.436-1.436-.718.719-.795-.795c.36-.54.613-1.145.745-1.782h1.117v1.016H32.5v-4.063h-2.031v1.016h-1.117a5.048 5.048 0 00-.744-1.78l.795-.795.718.719 1.437-1.437-2.873-2.873-1.436 1.436.718.718-.795.796a5.039 5.039 0 00-1.781-.745V16.25h1.015v-2.031h-4.062v2.031h1.015v1.117c-.635.131-1.24.383-1.78.744l-.795-.796.718-.718-1.436-1.436-2.872 2.874 1.436 1.436.718-.72.795.796a5.047 5.047 0 00-.745 1.781h-1.117v-1.015H16.25zm8.125-1.016a3.047 3.047 0 110 6.094 3.047 3.047 0 010-6.094z" fill="#26CF41"/><path d="M52.813 4.063H41.457a3.057 3.057 0 00-2.864-2.032H26.406a3.056 3.056 0 00-3.047 3.047v3.047h-9.14a2.037 2.037 0 00-2.031 2.031v19.297h2.03V10.156h9.141a2.037 2.037 0 002.032 2.031h14.218a2.037 2.037 0 002.032-2.03h7.109V48.75h-6.094a2.037 2.037 0 00-2.031 2.031v6.094H14.219v-25.39h-2.031v25.39a2.037 2.037 0 002.03 2.031h27.423c.269-.002.527-.107.72-.294l8.126-8.125c.187-.194.292-.452.294-.721v-39.61a2.037 2.037 0 00-2.031-2.031h-7.11V6.094h11.172v54.843H10.157V6.094h11.172V4.062H10.156a2.037 2.037 0 00-2.031 2.032v54.843a2.037 2.037 0 002.031 2.032h42.657a2.038 2.038 0 002.03-2.032V6.094a2.038 2.038 0 00-2.03-2.032zm-13.204 6.093H25.391V5.078a1.016 1.016 0 011.015-1.016h12.188a1.016 1.016 0 011.015 1.016v5.078zm3.047 45.287v-4.662h4.662l-4.662 4.662z" fill="#26CF41"/><path d="M42.656 34.531h2.032v2.032h-2.032V34.53zM42.656 42.656h2.032v2.032h-2.032v-2.032z" fill="#26CF41"/></svg><svg fill="none" viewBox="0 0 122 38" id="logo" xmlns="http://www.w3.org/2000/svg"><path d="M4.838 33.167h16.846V37H.126V1.453h4.712v31.714zm47.925-12.793c0 3.483-.586 6.527-1.758 9.13-1.172 2.589-2.832 4.566-4.98 5.933-2.149 1.368-4.655 2.051-7.52 2.051-2.8 0-5.282-.683-7.446-2.05-2.165-1.384-3.85-3.345-5.054-5.884-1.188-2.556-1.799-5.51-1.831-8.863v-2.563c0-3.418.594-6.437 1.782-9.058 1.188-2.62 2.865-4.622 5.03-6.006 2.18-1.4 4.67-2.1 7.47-2.1 2.848 0 5.355.693 7.52 2.076 2.18 1.367 3.857 3.361 5.029 5.981 1.172 2.605 1.758 5.64 1.758 9.107v2.246zM48.1 18.079c0-4.215-.847-7.446-2.54-9.692-1.692-2.263-4.06-3.394-7.104-3.394-2.962 0-5.298 1.131-7.007 3.394-1.693 2.246-2.563 5.37-2.612 9.375v2.612c0 4.085.854 7.3 2.563 9.644 1.726 2.327 4.094 3.49 7.105 3.49 3.027 0 5.371-1.098 7.031-3.295 1.66-2.214 2.515-5.38 2.564-9.497v-2.637zm37.94 14.258c-1.205 1.725-2.89 3.02-5.055 3.882-2.148.846-4.655 1.27-7.52 1.27-2.896 0-5.468-.676-7.714-2.027-2.246-1.367-3.988-3.304-5.225-5.81-1.22-2.507-1.847-5.412-1.88-8.716v-3.101c0-5.355 1.246-9.505 3.736-12.451 2.506-2.946 6.022-4.42 10.547-4.42 3.71 0 6.697.953 8.96 2.857 2.262 1.888 3.645 4.574 4.15 8.057h-4.687c-.88-4.704-3.679-7.056-8.399-7.056-3.141 0-5.526 1.107-7.153 3.32-1.611 2.198-2.425 5.388-2.442 9.57v2.906c0 3.988.912 7.162 2.735 9.522 1.823 2.343 4.288 3.515 7.397 3.515 1.758 0 3.296-.195 4.615-.586 1.318-.39 2.408-1.05 3.271-1.977v-7.984h-8.228V19.3H86.04v13.037zm35.18-11.963c0 3.483-.586 6.527-1.758 9.13-1.172 2.589-2.832 4.566-4.981 5.933-2.148 1.368-4.655 2.051-7.519 2.051-2.8 0-5.282-.683-7.446-2.05-2.165-1.384-3.85-3.345-5.054-5.884-1.188-2.556-1.799-5.51-1.831-8.863v-2.563c0-3.418.594-6.437 1.782-9.058 1.188-2.62 2.865-4.622 5.03-6.006 2.18-1.4 4.671-2.1 7.47-2.1 2.848 0 5.355.693 7.52 2.076 2.181 1.367 3.857 3.361 5.029 5.981 1.172 2.605 1.758 5.64 1.758 9.107v2.246zm-4.663-2.295c0-4.215-.847-7.446-2.539-9.692-1.693-2.263-4.061-3.394-7.105-3.394-2.962 0-5.298 1.131-7.007 3.394-1.693 2.246-2.563 5.37-2.612 9.375v2.612c0 4.085.854 7.3 2.563 9.644 1.726 2.327 4.094 3.49 7.105 3.49 3.027 0 5.371-1.098 7.031-3.295 1.66-2.214 2.515-5.38 2.564-9.497v-2.637z" fill="#fff"/></svg><svg viewBox="0 0 504 504" id="mastercard" xmlns="http://www.w3.org/2000/svg"><path d="M504 252c0 83.2-67.2 151.2-151.2 151.2-83.2 0-151.2-68-151.2-151.2 0-83.2 67.2-151.2 150.4-151.2 84.8 0 152 68 152 151.2z" fill="#ffb600"/><path d="M352.8 100.8c83.2 0 151.2 68 151.2 151.2 0 83.2-67.2 151.2-151.2 151.2-83.2 0-151.2-68-151.2-151.2" fill="#f7981d"/><path d="M352.8 100.8c83.2 0 151.2 68 151.2 151.2 0 83.2-67.2 151.2-151.2 151.2" fill="#ff8500"/><path d="M149.6 100.8C67.2 101.6 0 168.8 0 252s67.2 151.2 151.2 151.2c39.2 0 74.4-15.2 101.6-39.2 5.6-4.8 10.4-10.4 15.2-16h-31.2c-4-4.8-8-10.4-11.2-15.2h53.6c3.2-4.8 6.4-10.4 8.8-16h-71.2c-2.4-4.8-4.8-10.4-6.4-16h83.2c4.8-15.2 8-31.2 8-48 0-11.2-1.6-21.6-3.2-32h-92.8c.8-5.6 2.4-10.4 4-16h83.2c-1.6-5.6-4-11.2-6.4-16H216c2.4-5.6 5.6-10.4 8.8-16h53.6c-3.2-5.6-7.2-11.2-12-16h-29.6c4.8-5.6 9.6-10.4 15.2-15.2-26.4-24.8-62.4-39.2-101.6-39.2 0-1.6 0-1.6-.8-1.6z" fill="#ff5050"/><path d="M0 252c0 83.2 67.2 151.2 151.2 151.2 39.2 0 74.4-15.2 101.6-39.2 5.6-4.8 10.4-10.4 15.2-16h-31.2c-4-4.8-8-10.4-11.2-15.2h53.6c3.2-4.8 6.4-10.4 8.8-16h-71.2c-2.4-4.8-4.8-10.4-6.4-16h83.2c4.8-15.2 8-31.2 8-48 0-11.2-1.6-21.6-3.2-32h-92.8c.8-5.6 2.4-10.4 4-16h83.2c-1.6-5.6-4-11.2-6.4-16H216c2.4-5.6 5.6-10.4 8.8-16h53.6c-3.2-5.6-7.2-11.2-12-16h-29.6c4.8-5.6 9.6-10.4 15.2-15.2-26.4-24.8-62.4-39.2-101.6-39.2h-.8" fill="#e52836"/><path d="M151.2 403.2c39.2 0 74.4-15.2 101.6-39.2 5.6-4.8 10.4-10.4 15.2-16h-31.2c-4-4.8-8-10.4-11.2-15.2h53.6c3.2-4.8 6.4-10.4 8.8-16h-71.2c-2.4-4.8-4.8-10.4-6.4-16h83.2c4.8-15.2 8-31.2 8-48 0-11.2-1.6-21.6-3.2-32h-92.8c.8-5.6 2.4-10.4 4-16h83.2c-1.6-5.6-4-11.2-6.4-16H216c2.4-5.6 5.6-10.4 8.8-16h53.6c-3.2-5.6-7.2-11.2-12-16h-29.6c4.8-5.6 9.6-10.4 15.2-15.2-26.4-24.8-62.4-39.2-101.6-39.2h-.8" fill="#cb2026"/><g fill="#fff"><path d="M204.8 290.4l2.4-13.6c-.8 0-2.4.8-4 .8-5.6 0-6.4-3.2-5.6-4.8l4.8-28h8.8l2.4-15.2h-8l1.6-9.6h-16s-9.6 52.8-9.6 59.2c0 9.6 5.6 13.6 12.8 13.6 4.8 0 8.8-1.6 10.4-2.4zM210.4 264.8c0 22.4 15.2 28 28 28 12 0 16.8-2.4 16.8-2.4l3.2-15.2s-8.8 4-16.8 4c-17.6 0-14.4-12.8-14.4-12.8H260s2.4-10.4 2.4-14.4c0-10.4-5.6-23.2-23.2-23.2-16.8-1.6-28.8 16-28.8 36zm28-23.2c8.8 0 7.2 10.4 7.2 11.2H228c0-.8 1.6-11.2 10.4-11.2zM340 290.4l3.2-17.6s-8 4-13.6 4c-11.2 0-16-8.8-16-18.4 0-19.2 9.6-29.6 20.8-29.6 8 0 14.4 4.8 14.4 4.8l2.4-16.8s-9.6-4-18.4-4c-18.4 0-36.8 16-36.8 46.4 0 20 9.6 33.6 28.8 33.6 6.4 0 15.2-2.4 15.2-2.4zM116.8 227.2c-11.2 0-19.2 3.2-19.2 3.2L95.2 244s7.2-3.2 17.6-3.2c5.6 0 10.4.8 10.4 5.6 0 3.2-.8 4-.8 4h-7.2c-13.6 0-28.8 5.6-28.8 24 0 14.4 9.6 17.6 15.2 17.6 11.2 0 16-7.2 16.8-7.2l-.8 6.4H132l6.4-44c0-19.2-16-20-21.6-20zm3.2 36c0 2.4-1.6 15.2-11.2 15.2-4.8 0-6.4-4-6.4-6.4 0-4 2.4-9.6 14.4-9.6 2.4.8 3.2.8 3.2.8zM153.6 292c4 0 24 .8 24-20.8 0-20-19.2-16-19.2-24 0-4 3.2-5.6 8.8-5.6 2.4 0 11.2.8 11.2.8l2.4-14.4s-5.6-1.6-15.2-1.6c-12 0-24 4.8-24 20.8 0 18.4 20 16.8 20 24 0 4.8-5.6 5.6-9.6 5.6-7.2 0-14.4-2.4-14.4-2.4l-2.4 14.4c.8 1.6 4.8 3.2 18.4 3.2zM472.8 214.4l-3.2 21.6s-6.4-8-15.2-8c-14.4 0-27.2 17.6-27.2 38.4 0 12.8 6.4 26.4 20 26.4 9.6 0 15.2-6.4 15.2-6.4l-.8 5.6h16l12-76.8-16.8-.8zm-7.2 42.4c0 8.8-4 20-12.8 20-5.6 0-8.8-4.8-8.8-12.8 0-12.8 5.6-20.8 12.8-20.8 5.6 0 8.8 4 8.8 13.6zM29.6 291.2l9.6-57.6 1.6 57.6H52l20.8-57.6-8.8 57.6h16.8l12.8-76.8H67.2l-16 47.2-.8-47.2H27.2l-12.8 76.8h15.2zM277.6 291.2c4.8-26.4 5.6-48 16.8-44 1.6-10.4 4-14.4 5.6-18.4h-3.2c-7.2 0-12.8 9.6-12.8 9.6l1.6-8.8h-15.2L260 292h17.6v-.8zM376.8 227.2c-11.2 0-19.2 3.2-19.2 3.2l-2.4 13.6s7.2-3.2 17.6-3.2c5.6 0 10.4.8 10.4 5.6 0 3.2-.8 4-.8 4h-7.2c-13.6 0-28.8 5.6-28.8 24 0 14.4 9.6 17.6 15.2 17.6 11.2 0 16-7.2 16.8-7.2l-.8 6.4H392l6.4-44c.8-19.2-16-20-21.6-20zm4 36c0 2.4-1.6 15.2-11.2 15.2-4.8 0-6.4-4-6.4-6.4 0-4 2.4-9.6 14.4-9.6 2.4.8 2.4.8 3.2.8zM412 291.2c4.8-26.4 5.6-48 16.8-44 1.6-10.4 4-14.4 5.6-18.4h-3.2c-7.2 0-12.8 9.6-12.8 9.6l1.6-8.8h-15.2L394.4 292H412v-.8z"/></g><g fill="#dce5e5"><path d="M180 279.2c0 9.6 5.6 13.6 12.8 13.6 5.6 0 10.4-1.6 12-2.4l2.4-13.6c-.8 0-2.4.8-4 .8-5.6 0-6.4-3.2-5.6-4.8l4.8-28h8.8l2.4-15.2h-8l1.6-9.6M218.4 264.8c0 22.4 7.2 28 20 28 12 0 16.8-2.4 16.8-2.4l3.2-15.2s-8.8 4-16.8 4c-17.6 0-14.4-12.8-14.4-12.8H260s2.4-10.4 2.4-14.4c0-10.4-5.6-23.2-23.2-23.2-16.8-1.6-20.8 16-20.8 36zm20-23.2c8.8 0 10.4 10.4 10.4 11.2H228c0-.8 1.6-11.2 10.4-11.2zM340 290.4l3.2-17.6s-8 4-13.6 4c-11.2 0-16-8.8-16-18.4 0-19.2 9.6-29.6 20.8-29.6 8 0 14.4 4.8 14.4 4.8l2.4-16.8s-9.6-4-18.4-4c-18.4 0-28.8 16-28.8 46.4 0 20 1.6 33.6 20.8 33.6 6.4 0 15.2-2.4 15.2-2.4zM95.2 244.8s7.2-3.2 17.6-3.2c5.6 0 10.4.8 10.4 5.6 0 3.2-.8 4-.8 4h-7.2c-13.6 0-28.8 5.6-28.8 24 0 14.4 9.6 17.6 15.2 17.6 11.2 0 16-7.2 16.8-7.2l-.8 6.4H132l6.4-44c0-18.4-16-19.2-22.4-19.2m12 34.4c0 2.4-9.6 15.2-19.2 15.2-4.8 0-6.4-4-6.4-6.4 0-4 2.4-9.6 14.4-9.6 2.4.8 11.2.8 11.2.8zM136 290.4s4.8 1.6 18.4 1.6c4 0 24 .8 24-20.8 0-20-19.2-16-19.2-24 0-4 3.2-5.6 8.8-5.6 2.4 0 11.2.8 11.2.8l2.4-14.4s-5.6-1.6-15.2-1.6c-12 0-16 4.8-16 20.8 0 18.4 12 16.8 12 24 0 4.8-5.6 5.6-9.6 5.6M469.6 236s-6.4-8-15.2-8c-14.4 0-19.2 17.6-19.2 38.4 0 12.8-1.6 26.4 12 26.4 9.6 0 15.2-6.4 15.2-6.4l-.8 5.6h16l12-76.8m-20.8 41.6c0 8.8-7.2 20-16 20-5.6 0-8.8-4.8-8.8-12.8 0-12.8 5.6-20.8 12.8-20.8 5.6 0 12 4 12 13.6zM29.6 291.2l9.6-57.6 1.6 57.6H52l20.8-57.6-8.8 57.6h16.8l12.8-76.8h-20l-22.4 47.2-.8-47.2h-8.8l-27.2 76.8h15.2zM260.8 291.2h16.8c4.8-26.4 5.6-48 16.8-44 1.6-10.4 4-14.4 5.6-18.4h-3.2c-7.2 0-12.8 9.6-12.8 9.6l1.6-8.8M355.2 244.8s7.2-3.2 17.6-3.2c5.6 0 10.4.8 10.4 5.6 0 3.2-.8 4-.8 4h-7.2c-13.6 0-28.8 5.6-28.8 24 0 14.4 9.6 17.6 15.2 17.6 11.2 0 16-7.2 16.8-7.2l-.8 6.4H392l6.4-44c0-18.4-16-19.2-22.4-19.2m12 34.4c0 2.4-9.6 15.2-19.2 15.2-4.8 0-6.4-4-6.4-6.4 0-4 2.4-9.6 14.4-9.6 3.2.8 11.2.8 11.2.8zM395.2 291.2H412c4.8-26.4 5.6-48 16.8-44 1.6-10.4 4-14.4 5.6-18.4h-3.2c-7.2 0-12.8 9.6-12.8 9.6l1.6-8.8"/></g></svg><svg fill="none" viewBox="0 0 25 25" id="phone-call" xmlns="http://www.w3.org/2000/svg"><g clip-path="url(#hclip0)" fill="#000"><path d="M19.758 15.487c-.512-.533-1.13-.818-1.784-.818-.648 0-1.271.28-1.804.813l-1.667 1.662c-.138-.074-.275-.143-.407-.211-.19-.095-.37-.185-.522-.28-1.562-.992-2.981-2.285-4.343-3.957-.66-.834-1.102-1.536-1.424-2.248.432-.396.833-.807 1.224-1.203.148-.148.295-.3.443-.449 1.108-1.108 1.108-2.543 0-3.65l-1.44-1.441c-.164-.164-.333-.333-.491-.502a24.91 24.91 0 00-.992-.981c-.512-.507-1.124-.776-1.768-.776-.643 0-1.266.27-1.794.776l-.01.01-1.794 1.81A3.86 3.86 0 00.04 6.496c-.127 1.54.327 2.976.675 3.915.855 2.306 2.132 4.443 4.037 6.733 2.31 2.76 5.091 4.938 8.268 6.474 1.213.575 2.833 1.256 4.643 1.372.111.005.227.01.333.01 1.218 0 2.242-.438 3.044-1.308.005-.01.016-.016.021-.027.274-.332.591-.633.924-.955.226-.216.459-.443.686-.68.522-.544.796-1.177.796-1.826 0-.654-.28-1.282-.812-1.81l-2.897-2.907zm1.889 5.556c-.005 0-.005.005 0 0-.206.222-.417.422-.644.644-.343.327-.691.67-1.018 1.055-.533.57-1.161.839-1.984.839-.08 0-.164 0-.243-.005-1.567-.1-3.023-.713-4.115-1.235-2.987-1.446-5.61-3.498-7.788-6.1-1.8-2.168-3.003-4.173-3.8-6.326-.49-1.314-.67-2.338-.59-3.303.052-.617.29-1.13.728-1.567l1.799-1.8c.258-.242.533-.374.802-.374.332 0 .601.2.77.37l.016.015c.322.3.628.612.95.945.163.168.332.337.501.511l1.44 1.44c.56.56.56 1.077 0 1.637-.152.153-.3.306-.453.453A27.54 27.54 0 016.693 9.53c-.01.01-.02.016-.026.026-.454.454-.37.897-.274 1.198l.016.047c.374.908.902 1.763 1.704 2.781l.005.005c1.456 1.794 2.992 3.193 4.686 4.264.216.137.438.248.649.353.19.095.369.185.522.28.021.01.042.026.063.037.18.09.348.132.523.132.438 0 .712-.275.802-.364l1.804-1.805c.18-.18.464-.396.797-.396.327 0 .596.206.76.386l.01.01 2.908 2.907c.543.539.543 1.093.005 1.652zM13.51 5.947a6.69 6.69 0 013.641 1.889 6.726 6.726 0 011.89 3.64.708.708 0 00.701.591c.042 0 .08-.005.121-.01a.713.713 0 00.586-.823 8.139 8.139 0 00-2.285-4.406 8.138 8.138 0 00-4.405-2.285.716.716 0 00-.824.58.705.705 0 00.576.824zM24.971 11.028a13.388 13.388 0 00-3.762-7.255A13.389 13.389 0 0013.954.01a.71.71 0 00-.818.58.716.716 0 00.586.823 11.988 11.988 0 016.484 3.361 11.954 11.954 0 013.361 6.485c.058.348.36.591.702.591.043 0 .08-.005.122-.01a.699.699 0 00.58-.813z"/></g><defs><clipPath id="hclip0"><path fill="#fff" d="M0 0h25v25H0z"/></clipPath></defs></svg><svg fill="none" viewBox="0 0 25 25" id="placeholder" xmlns="http://www.w3.org/2000/svg"><path d="M12.288.769c-4.492 0-8.147 3.655-8.147 8.147 0 5.646 8.155 15.29 8.155 15.29s8.139-9.922 8.139-15.29c0-4.492-3.655-8.147-8.147-8.147zm2.458 10.532a3.466 3.466 0 01-2.458 1.017c-.89 0-1.78-.34-2.458-1.017a3.48 3.48 0 010-4.916 3.453 3.453 0 012.458-1.018c.928 0 1.801.362 2.458 1.018a3.48 3.48 0 010 4.916z" fill="#000"/></svg><svg fill="none" viewBox="0 0 140 10" id="tail_dark" xmlns="http://www.w3.org/2000/svg"><path stroke="#A5A5A5" d="M0 4.5h60M80 4.5h60"/><rect x="65.5" y=".5" width="9" height="9" rx="4.5" stroke="#A5A5A5"/></svg><svg fill="none" viewBox="0 0 140 10" id="tail_light" xmlns="http://www.w3.org/2000/svg"><path stroke="#fff" d="M0 4.5h60M80 4.5h60"/><rect x="65.5" y=".5" width="9" height="9" rx="4.5" stroke="#fff"/></svg><svg viewBox="0 0 504 504" id="visa" xmlns="http://www.w3.org/2000/svg"><path fill="#3c58bf" d="M184.8 324.4l25.6-144h40l-24.8 144z"/><path fill="#293688" d="M184.8 324.4l32.8-144h32.8l-24.8 144z"/><path d="M370.4 182c-8-3.2-20.8-6.4-36.8-6.4-40 0-68.8 20-68.8 48.8 0 21.6 20 32.8 36 40s20.8 12 20.8 18.4c0 9.6-12.8 14.4-24 14.4-16 0-24.8-2.4-38.4-8l-5.6-2.4-5.6 32.8c9.6 4 27.2 8 45.6 8 42.4 0 70.4-20 70.4-50.4 0-16.8-10.4-29.6-34.4-40-14.4-7.2-23.2-11.2-23.2-18.4 0-6.4 7.2-12.8 23.2-12.8 13.6 0 23.2 2.4 30.4 5.6l4 1.6 6.4-31.2z" fill="#3c58bf"/><path d="M370.4 182c-8-3.2-20.8-6.4-36.8-6.4-40 0-61.6 20-61.6 48.8 0 21.6 12.8 32.8 28.8 40s20.8 12 20.8 18.4c0 9.6-12.8 14.4-24 14.4-16 0-24.8-2.4-38.4-8l-5.6-2.4-5.6 32.8c9.6 4 27.2 8 45.6 8 42.4 0 70.4-20 70.4-50.4 0-16.8-10.4-29.6-34.4-40-14.4-7.2-23.2-11.2-23.2-18.4 0-6.4 7.2-12.8 23.2-12.8 13.6 0 23.2 2.4 30.4 5.6l4 1.6 6.4-31.2z" fill="#293688"/><path d="M439.2 180.4c-9.6 0-16.8.8-20.8 10.4l-60 133.6h43.2l8-24h51.2l4.8 24H504l-33.6-144h-31.2zm-18.4 96c2.4-7.2 16-42.4 16-42.4s3.2-8.8 5.6-14.4l2.4 13.6s8 36 9.6 44h-33.6v-.8z" fill="#3c58bf"/><path d="M448.8 180.4c-9.6 0-16.8.8-20.8 10.4l-69.6 133.6h43.2l8-24h51.2l4.8 24H504l-33.6-144h-21.6zm-28 96c3.2-8 16-42.4 16-42.4s3.2-8.8 5.6-14.4l2.4 13.6s8 36 9.6 44h-33.6v-.8z" fill="#293688"/><path d="M111.2 281.2l-4-20.8c-7.2-24-30.4-50.4-56-63.2l36 128h43.2l64.8-144H152l-40.8 100z" fill="#3c58bf"/><path d="M111.2 281.2l-4-20.8c-7.2-24-30.4-50.4-56-63.2l36 128h43.2l64.8-144H160l-48.8 100z" fill="#293688"/><path d="M0 180.4l7.2 1.6c51.2 12 86.4 42.4 100 78.4l-14.4-68c-2.4-9.6-9.6-12-18.4-12H0z" fill="#ffbc00"/><path d="M0 180.4c51.2 12 93.6 43.2 107.2 79.2l-13.6-56.8c-2.4-9.6-10.4-15.2-19.2-15.2L0 180.4z" fill="#f7981d"/><path d="M0 180.4c51.2 12 93.6 43.2 107.2 79.2l-9.6-31.2c-2.4-9.6-5.6-19.2-16.8-23.2L0 180.4z" fill="#ed7c00"/><g fill="#051244"><path d="M151.2 276.4L124 249.2l-12.8 30.4-3.2-20c-7.2-24-30.4-50.4-56-63.2l36 128h43.2l20-48zM225.6 324.4l-34.4-35.2-6.4 35.2zM317.6 274.8c3.2 3.2 4.8 5.6 4 8.8 0 9.6-12.8 14.4-24 14.4-16 0-24.8-2.4-38.4-8l-5.6-2.4-5.6 32.8c9.6 4 27.2 8 45.6 8 25.6 0 46.4-7.2 58.4-20l-34.4-33.6zM364 324.4h37.6l8-24h51.2l4.8 24H504L490.4 266l-48-46.4 2.4 12.8s8 36 9.6 44h-33.6c3.2-8 16-42.4 16-42.4s3.2-8.8 5.6-14.4"/></g></svg></svg>