<svg width="60" height="60" viewBox="0 0 60 60" fill="none" xmlns="http://www.w3.org/2000/svg">
<g clip-path="url(#clip0)">
<path d="M50.1947 37.4162C52.7019 33.6086 54.1635 29.0543 54.1635 24.164C54.1635 10.8398 43.3232 0 29.9991 0C16.675 0 5.83511 10.8398 5.83511 24.164C5.83511 29.0543 7.29675 33.6086 9.80347 37.4162L0.351562 51.2009L11.1671 49.1844L13.1841 60L22.0976 47C24.575 47.8596 27.2333 48.3279 29.9991 48.3279C32.7654 48.3279 35.4236 47.8596 37.9005 47L46.8146 60L48.831 49.1844L59.6466 51.2009L50.1947 37.4162ZM15.0952 50.9592L13.9952 45.0595L8.09601 46.16L12.0767 40.3542C13.9833 42.4626 16.2561 44.2332 18.793 45.5672L15.0952 50.9592ZM9.37134 24.164C9.37134 12.7899 18.625 3.53622 29.9991 3.53622C41.3736 3.53622 50.6273 12.7899 50.6273 24.164C50.6273 35.5385 41.3736 44.7922 29.9991 44.7922C18.625 44.7922 9.37134 35.5385 9.37134 24.164ZM46.003 45.0595L44.903 50.9592L41.2056 45.5672C43.7425 44.2332 46.0153 42.4626 47.9219 40.3542L51.9026 46.1595L46.003 45.0595Z" fill="#26CF41"/>
<path d="M25.6915 29.4708L19.942 23.7218L17.4417 26.2221L25.6915 34.4719L42.5569 17.607L40.0566 15.1067L25.6915 29.4708Z" fill="#26CF41"/>
</g>
<defs>
<clipPath id="clip0">
<rect width="60" height="60" fill="white"/>
</clipPath>
</defs>
</svg>
