<svg width="122" height="38" viewBox="0 0 122 38" fill="none" xmlns="http://www.w3.org/2000/svg">
<path d="M4.83789 33.167H21.6836V37H0.125977V1.45312H4.83789V33.167ZM52.7627 20.374C52.7627 23.8571 52.1768 26.9007 51.0049 29.5049C49.833 32.0928 48.1729 34.0703 46.0244 35.4375C43.876 36.8047 41.3695 37.4883 38.5049 37.4883C35.7054 37.4883 33.2233 36.8047 31.0586 35.4375C28.8939 34.054 27.2093 32.0928 26.0049 29.5537C24.8167 26.9984 24.2064 24.0443 24.1738 20.6914V18.1279C24.1738 14.71 24.7679 11.6908 25.9561 9.07031C27.1442 6.44987 28.8206 4.44792 30.9854 3.06445C33.1663 1.66471 35.6566 0.964844 38.4561 0.964844C41.3044 0.964844 43.8109 1.65658 45.9756 3.04004C48.1566 4.40723 49.833 6.40104 51.0049 9.02148C52.1768 11.6257 52.7627 14.6611 52.7627 18.1279V20.374ZM48.0996 18.0791C48.0996 13.8636 47.2533 10.6328 45.5605 8.38672C43.8678 6.12435 41.4997 4.99316 38.4561 4.99316C35.4938 4.99316 33.1582 6.12435 31.4492 8.38672C29.7565 10.6328 28.8857 13.7578 28.8369 17.7617V20.374C28.8369 24.4593 29.6914 27.6738 31.4004 30.0176C33.1257 32.3451 35.4938 33.5088 38.5049 33.5088C41.5322 33.5088 43.876 32.4102 45.5361 30.2129C47.1963 27.9993 48.0508 24.8337 48.0996 20.7158V18.0791ZM86.0391 32.3369C84.8346 34.0622 83.1501 35.3561 80.9854 36.2188C78.8369 37.0651 76.3304 37.4883 73.4658 37.4883C70.5687 37.4883 67.9971 36.8128 65.751 35.4619C63.5049 34.0947 61.7633 32.1579 60.5264 29.6514C59.3057 27.1449 58.679 24.2396 58.6465 20.9355V17.835C58.6465 12.4801 59.8916 8.32975 62.3818 5.38379C64.8883 2.43783 68.404 0.964844 72.9287 0.964844C76.6396 0.964844 79.6263 1.91699 81.8887 3.82129C84.151 5.70931 85.5345 8.39486 86.0391 11.8779H81.3516C80.4727 7.17415 77.6732 4.82227 72.9531 4.82227C69.8118 4.82227 67.4274 5.92904 65.7998 8.14258C64.1885 10.3398 63.3747 13.5299 63.3584 17.7129V20.6182C63.3584 24.6058 64.2699 27.7796 66.0928 30.1396C67.9157 32.4834 70.3815 33.6553 73.4902 33.6553C75.248 33.6553 76.7861 33.46 78.1045 33.0693C79.4229 32.6787 80.5133 32.0195 81.376 31.0918V23.1084H73.1484V19.2998H86.0391V32.3369ZM121.22 20.374C121.22 23.8571 120.634 26.9007 119.462 29.5049C118.29 32.0928 116.63 34.0703 114.481 35.4375C112.333 36.8047 109.826 37.4883 106.962 37.4883C104.162 37.4883 101.68 36.8047 99.5156 35.4375C97.3509 34.054 95.6663 32.0928 94.4619 29.5537C93.2738 26.9984 92.6634 24.0443 92.6309 20.6914V18.1279C92.6309 14.71 93.2249 11.6908 94.4131 9.07031C95.6012 6.44987 97.2777 4.44792 99.4424 3.06445C101.623 1.66471 104.114 0.964844 106.913 0.964844C109.761 0.964844 112.268 1.65658 114.433 3.04004C116.614 4.40723 118.29 6.40104 119.462 9.02148C120.634 11.6257 121.22 14.6611 121.22 18.1279V20.374ZM116.557 18.0791C116.557 13.8636 115.71 10.6328 114.018 8.38672C112.325 6.12435 109.957 4.99316 106.913 4.99316C103.951 4.99316 101.615 6.12435 99.9062 8.38672C98.2135 10.6328 97.3428 13.7578 97.2939 17.7617V20.374C97.2939 24.4593 98.1484 27.6738 99.8574 30.0176C101.583 32.3451 103.951 33.5088 106.962 33.5088C109.989 33.5088 112.333 32.4102 113.993 30.2129C115.653 27.9993 116.508 24.8337 116.557 20.7158V18.0791Z" fill="white"/>
</svg>
